FFmpeg version SVN-r25716, Copyright (c) 2000-2010 the FFmpeg developers  built on Nov 10 2010 12:23:18 with gcc 4.1.2 20080704 (Red Hat 4.1.2-48)  configuration: --enable-libmp3lame --enable-shared --disable-mmx --arch=x86_64  libavutil     50.33. 0 / 50.33. 0  libavcore      0.12. 1 /  0.12. 1  libavcodec    52.94. 4 / 52.94. 4  libavformat   52.84. 0 / 52.84. 0  libavdevice   52. 2. 2 / 52. 2. 2  libavfilter    1.59. 0 /  1.59. 0  libswscale     0.12. 0 /  0.12. 0[mov,mp4,m4a,3gp,3g2,mj2 @ 0x1093a4c0] max_analyze_duration reachedSeems stream 0 codec frame rate differs from container frame rate: 600.00 (600/1) -> 15.00 (15/1)Input #0, mov,mp4,m4a,3gp,3g2,mj2, from '/RAID10/data/converted_video_files/35205.mov':  Duration: 00:00:05.66, bitrate: 1238 kb/s    Stream #0.0(eng): Video: svq1, yuv410p, 320x240, 1235 kb/s, 15 fps, 15 tbr, 600 tbn, 600 tbc[buffer @ 0x1093d870] w:320 h:240 pixfmt:yuv410p[ffsink @ 0x1093fc90] auto-inserting filter 'auto-inserted scaler 0' between the filter 'src' and the filter 'out'[scale @ 0x1093ffb0] w:320 h:240 fmt:yuv410p -> w:320 h:240 fmt:yuv420p flags:0x4Output #0, flv, to '/RAID10/data/converted_video_files/35205.flv':  Metadata:    encoder         : Lavf52.84.0    Stream #0.0(eng): Video: flv, yuv420p, 320x240, q=2-31, 600 kb/s, 1k tbn, 24 tbcStream mapping:  Stream #0.0 -> #0.0Press [q] to stop encodingframe=    7 fps=  0 q=2.0 size=      48kB time=0.46 bitrate= 851.4kbits/s    frame=   14 fps= 13 q=2.6 size=      92kB time=0.92 bitrate= 821.4kbits/s    frame=   34 fps= 19 q=2.8 size=     194kB time=2.25 bitrate= 708.0kbits/s    frame=   56 fps= 25 q=2.5 size=     301kB time=3.71 bitrate= 664.2kbits/s    frame=   85 fps= 32 q=2.4 Lsize=     374kB time=5.62 bitrate= 545.0kbits/s    video:373kB audio:0kB global headers:0kB muxing overhead 0.411375%